<?xml version="1.0" encoding="UTF-8" standalone="no"?>
<!-- Created with Inkscape (http://www.inkscape.org/) -->
<svg
   xmlns:dc="http://purl.org/dc/elements/1.1/"
   xmlns:cc="http://web.resource.org/cc/"
   xmlns:rdf="http://www.w3.org/1999/02/22-rdf-syntax-ns#"
   xmlns:svg="http://www.w3.org/2000/svg"
   xmlns="http://www.w3.org/2000/svg"
   xmlns:sodipodi="http://inkscape.sourceforge.net/DTD/sodipodi-0.dtd"
   xmlns:inkscape="http://www.inkscape.org/namespaces/inkscape"
   sodipodi:docname="green_check.svg"
   sodipodi:docbase="/home/tobgle/filez/pj/gofun/gofun/data"
   inkscape:version="0.41"
   sodipodi:version="0.32"
   id="svg1291"
   height="64px"
   width="64px">
  <defs
     id="defs3" />
  <sodipodi:namedview
     inkscape:window-y="24"
     inkscape:window-x="-2"
     inkscape:window-height="978"
     inkscape:window-width="1280"
     inkscape:grid-bbox="true"
     inkscape:document-units="px"
     showgrid="true"
     inkscape:current-layer="layer1"
     inkscape:cy="32.547130"
     inkscape:cx="34.714923"
     inkscape:zoom="11.000000"
     inkscape:pageshadow="2"
     inkscape:pageopacity="0.0"
     borderopacity="1.0"
     bordercolor="#666666"
     pagecolor="#ffffff"
     id="base" />
  <metadata
     id="metadata4">
    <rdf:RDF
       id="RDF5">
      <cc:Work
         id="Work6"
         rdf:about="">
        <dc:format
           id="format7">image/svg+xml</dc:format>
        <dc:type
           rdf:resource="http://purl.org/dc/dcmitype/StillImage"
           id="type9" />
      </cc:Work>
    </rdf:RDF>
  </metadata>
  <g
     inkscape:groupmode="layer"
     inkscape:label="Layer 1"
     id="layer1">
    <path
       id="path2063"
       d="M 15.763371,27.199867 L 19.441676,33.898053 L 23.776823,38.390738 L 26.666920,41.576460 L 32.118695,45.579034 L 33.169639,45.579034 L 33.892163,44.680498 L 33.892163,41.086349 L 34.220583,34.306478 L 36.059737,24.912682 L 38.227309,15.927311 L 40.394883,10.536089 L 43.284980,9.6375515 L 49.065175,10.536089 L 40.394883,32.999516 L 39.672358,41.984886 L 37.504785,49.173182 L 35.337212,51.868794 L 33.892163,52.767331 L 29.557017,51.868794 L 12.938957,37.492201 L 13.989902,28.506830 L 15.106530,26.709756 L 15.763371,27.199867 z "
       style="fill:#00b400;fill-opacity:1.0000000;fill-rule:evenodd;stroke:#759600;stroke-width:0.32229549;stroke-linecap:butt;stroke-linejoin:miter;stroke-miterlimit:4.0000000;stroke-opacity:1.0000000" />
    <path
       d="M 13.569054,36.427374 C 14.247370,37.393844 15.085303,38.214797 15.885462,39.029944 C 19.573972,42.666680 23.444993,46.010439 27.356675,49.263185 C 29.666018,51.179710 32.247008,53.621546 35.123747,52.210869 C 36.381790,51.359307 34.900808,52.367559 34.855819,52.365290 C 34.652594,52.355044 35.175384,52.051503 35.325091,51.880280 C 35.837432,51.294314 36.272388,50.610398 36.653847,49.888513 C 37.882245,47.563853 38.578763,44.887758 39.137435,42.217317 C 39.904728,39.477493 39.696069,36.608758 39.864992,33.792671 C 40.744469,29.771026 42.563959,26.084005 44.053962,22.363841 C 45.503322,18.466973 47.235796,14.707232 48.478940,10.693521 C 48.311429,9.8428575 50.436610,8.6382195 49.664739,9.5076645 C 48.012572,11.110577 46.573376,10.455715 44.631686,10.228479 C 43.517085,10.177250 42.330558,9.7961875 41.228216,10.180027 C 40.995905,10.260919 40.354061,10.686481 40.565992,10.543141 C 42.419602,9.2894585 41.006887,10.454571 40.553233,11.191077 C 38.888748,14.446344 37.912432,18.197275 37.123173,21.907230 C 36.707866,23.804208 36.572705,25.764422 36.177580,27.666259 C 35.695651,29.673731 35.196684,31.662653 34.908729,33.730514 C 34.650154,35.900518 34.418946,38.092028 34.430320,40.290209 C 34.430067,41.329549 34.543293,42.357712 34.688636,43.378355 C 34.755619,43.730774 34.706049,43.982578 34.546240,44.268903 C 34.331073,44.560276 34.169646,44.900558 33.996521,45.229604 C 33.976622,45.254823 33.956722,45.280041 33.936823,45.305260 C 33.460438,45.636728 32.993194,45.989385 32.507668,46.299663 C 31.784984,46.761498 27.733224,43.759908 27.154574,43.319708 C 23.653517,40.395472 20.318322,36.958889 17.748609,32.767125 C 16.291152,31.002950 15.985379,28.012317 14.527268,26.310451 C 14.017151,26.389174 13.430397,26.768206 15.490747,25.565537 C 15.556558,25.527122 15.385383,25.691253 15.341584,25.763414 C 15.141579,26.092929 15.012598,26.501629 14.896266,26.883586 C 14.495880,28.198178 14.253355,29.584256 14.032633,30.959353 C 13.752340,32.767367 13.580817,34.608179 13.641634,36.450829 C 13.632128,36.776070 13.705983,37.064805 13.798501,37.354506 L 12.440721,38.342422 C 12.328994,38.015457 12.267307,37.686915 12.279175,37.322340 C 12.257999,35.444198 12.449518,33.574595 12.746013,31.734974 C 13.061582,29.802007 13.450961,24.890334 15.824797,25.301350 C 17.142978,27.209721 17.529212,30.015095 18.936090,31.891047 C 21.431081,36.124464 24.687070,39.646552 28.242446,42.443855 C 29.506073,43.357433 30.798485,44.208511 32.186072,44.796507 C 32.587974,44.966814 33.024775,45.148477 33.454597,45.160658 C 33.548569,45.163322 33.813273,45.045771 33.733287,45.107170 C 33.344155,45.405875 31.997253,46.296654 32.554241,45.979379 C 32.756207,45.685889 32.893229,45.327992 33.101239,45.033844 C 33.264106,44.792789 33.364041,44.618839 33.310528,44.282542 C 33.196417,43.238606 33.090335,42.191661 33.097410,41.135354 C 33.099455,38.917297 33.370682,36.714545 33.608191,34.521374 C 33.872485,32.450102 34.341996,30.458720 34.843536,28.459882 C 35.234648,26.539611 35.372708,24.554683 35.853258,22.659348 C 36.698624,18.958037 37.657815,15.215112 39.245275,11.893458 C 40.908294,8.9865985 43.213407,8.7046565 45.800160,9.1928815 C 46.529054,9.2737575 47.257977,9.3559495 47.987957,9.4204585 C 48.387576,9.4557725 48.815914,9.5264125 49.215683,9.4508525 C 49.287051,9.4373635 49.483830,9.3223105 49.421805,9.3682395 C 49.021681,9.6645365 47.688592,10.613818 48.216919,10.247637 C 48.878320,9.4502965 50.516475,8.1391345 49.838975,9.9134585 C 48.422607,13.933369 46.668565,17.760862 45.172646,21.733854 C 43.728626,25.372630 42.024139,29.010175 41.211204,32.957027 C 41.000391,35.819047 41.083085,38.730021 40.330522,41.508554 C 39.315525,46.303096 37.916539,51.167912 34.004047,53.301403 C 31.084155,54.611040 28.563299,52.120473 26.277774,50.120257 C 22.403365,46.766292 18.514581,43.434424 14.719156,39.942769 C 13.889295,39.164749 12.954277,38.292427 12.216433,37.458186 L 13.569054,36.427374 z "
       id="path1303"
       style="fill:#005900;fill-opacity:1.0000000;fill-rule:nonzero;stroke:none;stroke-width:1.0000000pt;stroke-linecap:butt;stroke-linejoin:miter;stroke-opacity:1.0000000" />
  </g>
</svg>
