<?xml version="1.0" encoding="UTF-8" standalone="no"?>
<!-- Created with Inkscape (http://www.inkscape.org/) -->
<svg
   xmlns:dc="http://purl.org/dc/elements/1.1/"
   xmlns:cc="http://web.resource.org/cc/"
   xmlns:rdf="http://www.w3.org/1999/02/22-rdf-syntax-ns#"
   xmlns:svg="http://www.w3.org/2000/svg"
   xmlns="http://www.w3.org/2000/svg"
   xmlns:xlink="http://www.w3.org/1999/xlink"
   xmlns:sodipodi="http://inkscape.sourceforge.net/DTD/sodipodi-0.dtd"
   xmlns:inkscape="http://www.inkscape.org/namespaces/inkscape"
   sodipodi:docname="red_cross.svg"
   sodipodi:docbase="/home/tobgle/filez/pj/gofun/gofun/data"
   inkscape:version="0.41"
   sodipodi:version="0.32"
   id="svg1291"
   height="64px"
   width="64px">
  <defs
     id="defs3">
    <linearGradient
       id="linearGradient2105">
      <stop
         id="stop2107"
         offset="0.0000000"
         style="stop-color:#ff0000;stop-opacity:1.0000000;" />
      <stop
         id="stop2109"
         offset="1.0000000"
         style="stop-color:#880000;stop-opacity:1.0000000;" />
    </linearGradient>
    <linearGradient
       gradientUnits="userSpaceOnUse"
       y2="27.425044"
       x2="61.042069"
       y1="27.425044"
       x1="9.2412156"
       gradientTransform="matrix(0.845728,0.000000,0.000000,1.150026,-0.169879,0.674380)"
       id="linearGradient2111"
       xlink:href="#linearGradient2105"
       inkscape:collect="always" />
    <linearGradient
       gradientUnits="userSpaceOnUse"
       y2="34.255614"
       x2="59.084526"
       y1="34.255614"
       x1="5.5942485"
       gradientTransform="matrix(1.018369,0.000000,0.000000,0.981962,-0.169879,0.625000)"
       id="linearGradient2113"
       xlink:href="#linearGradient2105"
       inkscape:collect="always" />
  </defs>
  <sodipodi:namedview
     inkscape:window-y="24"
     inkscape:window-x="-2"
     inkscape:window-height="978"
     inkscape:window-width="1280"
     inkscape:grid-bbox="true"
     inkscape:document-units="px"
     showgrid="true"
     inkscape:current-layer="layer1"
     inkscape:cy="34.172808"
     inkscape:cx="33.626155"
     inkscape:zoom="12.562500"
     inkscape:pageshadow="2"
     inkscape:pageopacity="0.0"
     borderopacity="1.0"
     bordercolor="#666666"
     pagecolor="#ffffff"
     id="base" />
  <metadata
     id="metadata4">
    <rdf:RDF
       id="RDF5">
      <cc:Work
         id="Work6"
         rdf:about="">
        <dc:format
           id="format7">image/svg+xml</dc:format>
        <dc:type
           rdf:resource="http://purl.org/dc/dcmitype/StillImage"
           id="type9" />
      </cc:Work>
    </rdf:RDF>
  </metadata>
  <g
     inkscape:groupmode="layer"
     inkscape:label="Layer 1"
     id="layer1">
    <path
       d="M 10.531323,8.6250000 C 10.673418,8.7261037 10.840908,8.8054235 10.996891,8.8907862 C 11.340644,9.0865136 11.607813,9.3763203 11.879333,9.6586614 C 12.097742,9.8757892 12.310355,10.097612 12.512609,10.329997 C 12.675685,10.503570 12.834860,10.679035 12.986836,10.862831 C 13.177838,11.089965 13.338798,11.339175 13.496962,11.589817 C 13.663294,11.859689 13.850279,12.115616 14.040890,12.368325 C 14.240049,12.607528 14.442589,12.843736 14.639915,13.084510 C 14.903965,13.416583 15.174866,13.743086 15.444501,14.070551 C 15.685461,14.376905 15.957811,14.650798 16.245407,14.911551 C 16.510913,15.144913 16.759768,15.396436 17.009199,15.646885 C 17.288881,15.923640 17.570231,16.198193 17.844485,16.480662 C 18.266631,16.902401 18.684651,17.328213 19.097860,17.758848 C 19.386629,18.067799 19.627673,18.416843 19.894927,18.744118 C 20.129056,19.010537 20.378138,19.259688 20.601979,19.534983 C 21.125359,20.260782 21.626490,21.002872 22.141869,21.734604 C 22.502325,22.250250 22.868141,22.761937 23.250045,23.261679 C 23.461348,23.554392 23.681327,23.840452 23.905787,24.123007 C 24.170304,24.445184 24.453140,24.751451 24.725659,25.066706 C 24.982962,25.368402 25.224172,25.683502 25.471491,25.993495 C 25.778707,26.369172 26.072894,26.754767 26.344613,27.157182 C 26.655857,27.672217 26.945724,28.197692 27.280757,28.698374 C 27.692328,29.293945 28.142099,29.862148 28.614241,30.409882 C 28.835535,30.657888 29.079778,30.883094 29.315607,31.116613 C 29.541535,31.338261 29.740825,31.583851 29.933196,31.834822 C 30.190329,32.187059 30.457764,32.531382 30.722454,32.877842 C 31.005217,33.238470 31.265618,33.615684 31.528461,33.991022 C 31.757062,34.312997 31.984167,34.636023 32.207658,34.961621 C 32.529819,35.414518 32.929339,35.803629 33.339002,36.175201 C 33.758734,36.537156 34.193462,36.880897 34.635890,37.214105 C 35.027451,37.530152 35.448217,37.804358 35.868347,38.079389 C 36.404445,38.467039 36.942143,38.852426 37.479690,39.238010 C 37.841182,39.499625 38.214738,39.743468 38.584272,39.993263 C 38.944935,40.247535 39.303447,40.504895 39.662813,40.761022 C 39.957911,40.986008 40.265939,41.192579 40.573080,41.399791 C 41.133307,41.802739 41.679765,42.225129 42.219513,42.655401 C 42.969322,43.244933 43.650590,43.912722 44.335668,44.575321 C 45.035214,45.237249 45.731271,45.902101 46.403388,46.592382 C 46.916534,47.119696 47.453375,47.623144 48.023967,48.086671 C 48.306307,48.292044 48.598500,48.476194 48.878756,48.685098 C 49.621009,49.296008 50.387703,49.874278 51.171809,50.429444 C 51.833986,50.894829 52.500946,51.353564 53.184756,51.786128 C 53.504330,51.970071 53.806156,52.175777 54.092857,52.407472 C 54.429989,52.707067 54.733249,53.043346 55.047382,53.366998 C 55.668283,54.008272 56.336005,54.602393 57.015765,55.179301 C 57.767809,55.802618 58.560106,56.374433 59.289703,57.025056 C 59.318135,57.050103 59.346568,57.075152 59.375000,57.100200 L 54.851730,59.900413 C 54.827054,59.873349 54.802378,59.846285 54.777702,59.819222 C 54.123356,59.126222 53.365976,58.546514 52.626944,57.949514 C 51.911473,57.377501 51.210615,56.790742 50.545414,56.159536 C 50.219375,55.863274 49.910566,55.546735 49.565721,55.272234 C 49.282460,55.066281 48.986014,54.879980 48.705676,54.669643 C 48.070580,54.188571 47.437715,53.704447 46.798405,53.229042 C 46.014750,52.652139 45.225470,52.080378 44.396886,51.570107 C 44.081859,51.377547 43.766276,51.191811 43.510224,50.918635 C 42.978921,50.402485 42.466322,49.867371 41.942373,49.343684 C 41.266527,48.669085 40.603622,47.981208 39.912414,47.322426 C 39.226640,46.677868 38.523719,46.050484 37.784484,45.468452 C 37.236058,45.051086 36.680434,44.643070 36.081570,44.300971 C 35.763770,44.096841 35.464954,43.865800 35.163708,43.637553 C 34.812577,43.379040 34.457378,43.126123 34.088748,42.893287 C 33.719248,42.641272 33.368806,42.364035 33.016170,42.088728 C 32.490981,41.697311 31.960344,41.312065 31.401927,40.969600 C 30.970316,40.688777 30.548172,40.394857 30.146524,40.071420 C 29.699866,39.722162 29.261858,39.361032 28.840705,38.980833 C 28.413257,38.575129 27.988975,38.163035 27.622706,37.699108 C 27.386064,37.377087 27.167378,37.042232 26.937063,36.715437 C 26.680950,36.346414 26.431467,35.972337 26.157800,35.616089 C 25.889015,35.271547 25.613021,34.932962 25.338232,34.593274 C 25.153167,34.364011 24.963993,34.138188 24.750476,33.934747 C 24.503093,33.690861 24.256803,33.444612 24.051116,33.162780 C 23.618106,32.571388 23.198636,31.970069 22.772204,31.373864 C 22.419981,30.876945 22.064047,30.381746 21.735134,29.868837 C 21.489213,29.474773 21.221644,29.095581 20.916210,28.745362 C 20.659477,28.442702 20.391757,28.149706 20.145009,27.838596 C 19.879057,27.518647 19.610341,27.201136 19.341646,26.883526 C 19.100196,26.595760 18.849013,26.314397 18.653578,25.991423 C 18.312664,25.462633 17.976083,24.931014 17.627048,24.407556 C 17.145465,23.678834 16.673301,22.931720 16.061816,22.304609 C 15.792232,22.058843 15.536156,21.801638 15.318547,21.506521 C 15.065640,21.181174 14.822815,20.847419 14.551391,20.537166 C 14.165273,20.097197 13.762930,19.672393 13.331668,19.276636 C 13.035065,19.007370 12.719762,18.758277 12.448569,18.461653 C 12.208667,18.215639 11.966604,17.972062 11.705910,17.748039 C 11.407820,17.462896 11.136495,17.154375 10.882434,16.828527 C 10.611536,16.500587 10.333305,16.179123 10.056708,15.856069 C 9.8482260,15.615521 9.6375060,15.376467 9.4448260,15.122674 C 9.2458500,14.853908 9.0466490,14.584807 8.8718160,14.299119 C 8.7229064,14.072129 8.5680698,13.849362 8.3889827,13.644931 C 8.2323026,13.468892 8.0676231,13.300209 7.9178964,13.117964 C 7.7248873,12.892553 7.5249677,12.673683 7.3202928,12.458838 C 7.0880792,12.214645 6.8495437,11.981683 6.5272577,11.863395 C 6.3978947,11.823340 6.2233458,11.735020 6.1521330,11.829786 L 10.531323,8.6250000 z "
       id="path1335"
       style="fill:#730000;fill-opacity:1.0000000;fill-rule:nonzero;stroke:url(#linearGradient2113);stroke-width:1.0000000pt;stroke-linecap:butt;stroke-linejoin:miter;stroke-opacity:1.0000000" />
    <path
       d="M 8.2706778,56.123177 C 8.5756213,55.825848 8.8257546,55.460411 9.0848550,55.120001 C 9.5568990,54.507176 9.9945190,53.868853 10.488250,53.272294 C 10.777378,52.900438 11.178190,52.655785 11.567349,52.398652 C 11.913075,52.197315 12.193820,51.924114 12.464406,51.637258 C 12.842047,51.252047 13.200060,50.849715 13.546738,50.437666 C 13.905685,50.022080 14.223099,49.576086 14.526080,49.120762 C 14.804275,48.694476 15.112561,48.288084 15.438100,47.895607 C 15.803776,47.470039 16.158573,47.035706 16.525471,46.611213 C 16.886670,46.184688 17.220851,45.737094 17.549810,45.286491 C 17.768302,44.996513 17.940836,44.679807 18.112627,44.362561 C 18.282963,44.040059 18.468333,43.725643 18.645303,43.406637 C 18.844161,43.054747 19.056022,42.710224 19.271611,42.368020 C 19.500765,42.015818 19.721682,41.658765 19.933368,41.296281 C 20.119234,40.962935 20.282611,40.618192 20.454184,40.277741 C 20.674314,39.818587 20.906108,39.364997 21.142626,38.913755 C 21.384217,38.457012 21.624927,37.999722 21.874075,37.546916 C 22.025912,37.240144 22.193471,36.943986 22.383946,36.659020 C 22.604517,36.367339 22.867469,36.111208 23.126584,35.853043 C 23.405053,35.563018 23.674900,35.265189 23.940518,34.963702 C 24.259760,34.556946 24.642583,34.215084 25.038399,33.882893 C 25.574954,33.446741 26.080323,32.976719 26.561048,32.482413 C 27.023317,31.987020 27.458833,31.468461 27.906278,30.960048 C 28.925529,29.831242 29.854220,28.627547 30.681842,27.357326 C 31.165547,26.665494 31.509224,25.908224 31.817270,25.131726 C 32.000558,24.628673 32.278665,24.175510 32.572769,23.729710 C 33.239045,22.805638 33.911760,21.886193 34.562393,20.951381 C 35.085724,20.272530 35.453575,19.488566 35.972488,18.809119 C 37.013447,17.632911 38.171192,16.560269 39.280060,15.445891 C 40.426884,14.257674 41.583444,13.080899 42.787170,11.947793 C 43.949180,10.905690 45.004236,9.7633808 46.010422,8.5778912 C 47.311190,7.0433975 48.557142,5.4639837 49.755036,3.8511290 C 49.958524,3.5736056 50.167061,3.3000468 50.387901,3.0356080 L 50.830121,8.2347132 C 50.620446,8.4455908 50.412108,8.6578115 50.220158,8.8848115 C 48.921070,10.364331 47.689472,11.899148 46.450882,13.427130 C 45.435334,14.674656 44.410265,15.923977 43.176347,16.974534 C 41.983991,18.059393 40.833062,19.186877 39.675920,20.307543 C 38.530572,21.448792 37.372219,22.606467 36.481874,23.955717 C 36.044699,24.654334 35.537824,25.307594 35.058760,25.978835 C 34.378962,26.922011 33.694640,27.866157 33.114907,28.872804 C 32.856917,29.330265 32.632236,29.803126 32.446011,30.293387 C 32.126999,31.033348 31.648306,31.687637 31.182118,32.344767 C 30.278688,33.597477 29.331143,34.817477 28.369640,36.027744 C 27.933681,36.587852 27.517132,37.163971 26.979460,37.638074 C 26.470801,38.120580 25.948613,38.588628 25.423494,39.053839 C 25.054667,39.395732 24.721522,39.769032 24.399438,40.153396 C 24.123875,40.465365 23.847247,40.777207 23.552310,41.071752 C 23.317889,41.318032 23.084653,41.568320 22.925004,41.869680 C 22.765938,42.161402 22.611817,42.455911 22.443755,42.742922 C 22.198255,43.180674 21.948681,43.616532 21.726728,44.066474 C 21.499019,44.530352 21.274862,44.995778 21.049335,45.460670 C 20.876719,45.812612 20.702261,46.164628 20.485661,46.493241 C 20.262732,46.849768 20.036313,47.204272 19.817944,47.563535 C 19.608800,47.905742 19.404331,48.250546 19.214570,48.603577 C 19.033576,48.923990 18.862715,49.249559 18.682469,49.570348 C 18.492401,49.886760 18.279063,50.187654 18.045980,50.475707 C 17.701473,50.913693 17.352470,51.348239 16.990565,51.772662 C 16.635269,52.208036 16.267199,52.633210 15.916043,53.071876 C 15.612748,53.472482 15.323169,53.882191 15.048868,54.302511 C 14.720128,54.748382 14.373708,55.180756 14.010988,55.600730 C 13.647047,56.021107 13.274613,56.434654 12.895529,56.841873 C 12.587332,57.133284 12.250887,57.385163 11.887674,57.608664 C 11.539689,57.846594 11.212980,58.102456 10.955435,58.438033 C 10.473301,59.020007 10.027135,59.629632 9.5805420,60.237936 C 9.3233790,60.601777 9.0144000,60.979972 8.8685750,61.392120 L 8.2706778,56.123177 z "
       id="path1345"
       style="fill:#730000;fill-opacity:1.0000000;fill-rule:nonzero;stroke:url(#linearGradient2111);stroke-width:0.98620920pt;stroke-linecap:butt;stroke-linejoin:miter;stroke-opacity:1.0000000" />
  </g>
</svg>
